<svg version="1.1" xmlns="http://www.w3.org/2000/svg" xmlns:xlink="http://www.w3.org/1999/xlink" width="1024" height="1024" viewBox="-43.3738 22.2026 0.3939 0.3725"><g transform="scale(0.0001,-0.0001)"><path class="C3303906" d="M-429806 -222646l-92 -138l-278 -121l44 -83l-300 -168l226 -410l-135 -144l63 -216l-110 -237l161 -240l-33 -150l-219 -49l-144 -234l-164 -38l81 -166l-377 -301l-98 37l-782 -314l-289 -19l-294 -114l-61 139l143 343l150 69l-154 136l-499 307l79 153l-98 86l-212 -66l-312 93l-193 -27l-35 168l177 168l183 20l195 317l349 205l189 396l226 214l65 -86l282 130l256 -25l71 -103l283 69l189 297l171 -81l206 218l-43 188l186 193l263 153l200 51l137 -206l172 -26l182 -235l-7 -153Z" centroide="-431567.69215185574,-223984.0336043137"></path></g></svg>